<svg width="1440" height="620" viewBox="0 0 1440 620" fill="none" xmlns="http://www.w3.org/2000/svg">
<g opacity="0.5" filter="url(#filter0_f_929_8825)">
<path d="M-262.312 12.9019H-229.149L-180.319 152.473L-131.489 12.9019H-98.3261L-167.002 203H-193.636L-262.312 12.9019ZM-280.199 12.9019H-247.167L-241.161 148.947V203H-280.199V12.9019ZM-113.471 12.9019H-80.3086V203H-119.477V148.947L-113.471 12.9019ZM-28.3216 12.9019V203H-67.3596V12.9019H-28.3216ZM139.082 12.9019V203H99.9136L23.5349 75.5716V203H-15.6337V12.9019H23.5349L100.044 140.461V12.9019H139.082ZM207.52 203H166.132L166.393 172.449H207.52C217.791 172.449 226.451 170.142 233.502 165.529C240.552 160.829 245.862 153.996 249.43 145.031C253.086 136.065 254.914 125.229 254.914 112.521V103.251C254.914 93.5021 253.869 84.9285 251.78 77.53C249.778 70.1315 246.776 63.9081 242.772 58.8597C238.768 53.8113 233.85 50.025 228.018 47.5008C222.186 44.8896 215.484 43.584 207.912 43.584H165.348V12.9019H207.912C220.62 12.9019 232.24 15.0779 242.772 19.43C253.391 23.695 262.574 29.8314 270.32 37.8392C278.067 45.847 284.029 55.4216 288.207 66.5628C292.472 77.6171 294.605 89.9334 294.605 103.512V112.521C294.605 126.012 292.472 138.328 288.207 149.47C284.029 160.611 278.067 170.185 270.32 178.193C262.661 186.114 253.478 192.25 242.772 196.602C232.153 200.867 220.402 203 207.52 203ZM188.327 12.9019V203H149.159V12.9019H188.327ZM373.487 119.571H324.657L324.396 92.6752H365.393C372.617 92.6752 378.536 91.7613 383.149 89.9334C387.762 88.0185 391.2 85.2767 393.463 81.708C395.814 78.0523 396.989 73.6132 396.989 68.3907C396.989 62.4719 395.857 57.6846 393.594 54.0289C391.418 50.3732 387.98 47.7184 383.28 46.0646C378.666 44.4108 372.704 43.584 365.393 43.584H338.236V203H299.067V12.9019H365.393C376.447 12.9019 386.326 13.9464 395.03 16.0354C403.821 18.1244 411.263 21.3014 417.356 25.5664C423.449 29.8314 428.106 35.228 431.326 41.7561C434.547 48.1971 436.157 55.8568 436.157 64.735C436.157 72.5687 434.373 79.7931 430.804 86.4082C427.322 93.0234 421.795 98.4199 414.223 102.598C406.737 106.776 396.945 109.082 384.846 109.518L373.487 119.571ZM371.79 203H313.951L329.227 172.449H371.79C378.666 172.449 384.281 171.361 388.633 169.184C392.985 166.921 396.205 163.875 398.294 160.045C400.383 156.215 401.428 151.82 401.428 146.858C401.428 141.288 400.47 136.457 398.555 132.366C396.727 128.275 393.768 125.142 389.677 122.966C385.586 120.702 380.19 119.571 373.487 119.571H335.755L336.016 92.6752H383.018L392.027 103.251C403.604 103.077 412.917 105.122 419.967 109.387C427.105 113.565 432.284 119.005 435.504 125.707C438.812 132.41 440.466 139.59 440.466 147.25C440.466 159.436 437.811 169.707 432.501 178.063C427.192 186.332 419.402 192.555 409.131 196.733C398.947 200.911 386.5 203 371.79 203ZM568.048 172.449V203H472.346V172.449H568.048ZM485.011 12.9019V203H445.842V12.9019H485.011ZM714.04 103.512V112.521C714.04 126.969 712.081 139.939 708.164 151.428C704.247 162.918 698.72 172.71 691.583 180.804C684.446 188.812 675.916 194.949 665.993 199.214C656.157 203.479 645.233 205.611 633.222 205.611C621.297 205.611 610.373 203.479 600.451 199.214C590.615 194.949 582.085 188.812 574.861 180.804C567.636 172.71 562.022 162.918 558.018 151.428C554.101 139.939 552.143 126.969 552.143 112.521V103.512C552.143 88.976 554.101 76.0068 558.018 64.6044C561.935 53.115 567.462 43.3228 574.6 35.228C581.824 27.1332 590.354 20.9532 600.19 16.6882C610.112 12.4232 621.036 10.2907 632.961 10.2907C644.972 10.2907 655.896 12.4232 665.732 16.6882C675.654 20.9532 684.184 27.1332 691.322 35.228C698.546 43.3228 704.117 53.115 708.034 64.6044C712.038 76.0068 714.04 88.976 714.04 103.512ZM674.479 112.521V103.251C674.479 93.1539 673.565 84.2757 671.738 76.6161C669.91 68.9565 667.211 62.5154 663.643 57.2929C660.074 52.0705 655.722 48.1536 650.587 45.5424C645.451 42.8441 639.576 41.495 632.961 41.495C626.346 41.495 620.47 42.8441 615.335 45.5424C610.286 48.1536 605.978 52.0705 602.409 57.2929C598.928 62.5154 596.273 68.9565 594.445 76.6161C592.617 84.2757 591.703 93.1539 591.703 103.251V112.521C591.703 122.53 592.617 131.409 594.445 139.155C596.273 146.815 598.971 153.299 602.54 158.609C606.108 163.831 610.461 167.792 615.596 170.49C620.731 173.188 626.607 174.538 633.222 174.538C639.837 174.538 645.712 173.188 650.848 170.49C655.983 167.792 660.292 163.831 663.773 158.609C667.255 153.299 669.91 146.815 671.738 139.155C673.565 131.409 674.479 122.53 674.479 112.521ZM764.068 172.84L801.931 12.9019H823.082L827.913 39.5365L787.569 203H764.852L764.068 172.84ZM744.614 12.9019L775.949 172.84L773.338 203H748.009L705.838 12.9019H744.614ZM861.206 172.187L892.149 12.9019H930.926L888.885 203H863.556L861.206 172.187ZM834.963 12.9019L873.087 173.493L872.043 203H849.325L808.72 39.406L813.943 12.9019H834.963ZM969.857 12.9019V203H930.819V12.9019H969.857ZM1137.26 12.9019V203H1098.09L1021.71 75.5716V203H982.545V12.9019H1021.71L1098.22 140.461V12.9019H1137.26ZM1298.01 103.642V178.977C1295.05 182.545 1290.48 186.419 1284.3 190.597C1278.12 194.688 1270.15 198.213 1260.4 201.172C1250.66 204.132 1238.86 205.611 1225.02 205.611C1212.75 205.611 1201.56 203.609 1191.47 199.605C1181.37 195.514 1172.67 189.552 1165.35 181.718C1158.13 173.885 1152.56 164.31 1148.64 152.995C1144.73 141.592 1142.77 128.58 1142.77 113.957V102.076C1142.77 87.4527 1144.64 74.4401 1148.38 63.0377C1152.21 51.6353 1157.65 42.0172 1164.7 34.1835C1171.75 26.3498 1180.15 20.3875 1189.9 16.2965C1199.65 12.2056 1210.49 10.1601 1222.41 10.1601C1238.95 10.1601 1252.53 12.8584 1263.15 18.2549C1273.76 23.5645 1281.86 30.963 1287.43 40.4505C1293.09 49.8509 1296.57 60.644 1297.88 72.8298H1259.88C1258.92 66.3888 1257.1 60.7746 1254.4 55.9873C1251.7 51.2001 1247.83 47.4573 1242.78 44.759C1237.82 42.0607 1231.38 40.7116 1223.45 40.7116C1216.93 40.7116 1211.1 42.0607 1205.96 44.759C1200.91 47.3702 1196.65 51.2436 1193.16 56.379C1189.68 61.5144 1187.03 67.8685 1185.2 75.441C1183.37 83.0136 1182.46 91.8048 1182.46 101.815V113.957C1182.46 123.88 1183.42 132.671 1185.33 140.33C1187.25 147.903 1190.07 154.3 1193.82 159.523C1197.65 164.658 1202.35 168.532 1207.92 171.143C1213.49 173.754 1219.97 175.06 1227.37 175.06C1233.55 175.06 1238.69 174.538 1242.78 173.493C1246.96 172.449 1250.31 171.186 1252.83 169.707C1255.44 168.14 1257.44 166.66 1258.84 165.268V131.583H1223.06V103.642H1298.01ZM1380.02 119.571H1331.19L1330.93 92.6752H1371.93C1379.15 92.6752 1385.07 91.7613 1389.68 89.9334C1394.3 88.0185 1397.73 85.2767 1400 81.708C1402.35 78.0523 1403.52 73.6132 1403.52 68.3907C1403.52 62.4719 1402.39 57.6846 1400.13 54.0289C1397.95 50.3732 1394.51 47.7184 1389.81 46.0646C1385.2 44.4108 1379.24 43.584 1371.93 43.584H1344.77V203H1305.6V12.9019H1371.93C1382.98 12.9019 1392.86 13.9464 1401.56 16.0354C1410.36 18.1244 1417.8 21.3014 1423.89 25.5664C1429.98 29.8314 1434.64 35.228 1437.86 41.7561C1441.08 48.1971 1442.69 55.8568 1442.69 64.735C1442.69 72.5687 1440.91 79.7931 1437.34 86.4082C1433.86 93.0234 1428.33 98.4199 1420.76 102.598C1413.27 106.776 1403.48 109.082 1391.38 109.518L1380.02 119.571ZM1378.32 203H1320.49L1335.76 172.449H1378.32C1385.2 172.449 1390.82 171.361 1395.17 169.184C1399.52 166.921 1402.74 163.875 1404.83 160.045C1406.92 156.215 1407.96 151.82 1407.96 146.858C1407.96 141.288 1407 136.457 1405.09 132.366C1403.26 128.275 1400.3 125.142 1396.21 122.966C1392.12 120.702 1386.72 119.571 1380.02 119.571H1342.29L1342.55 92.6752H1389.55L1398.56 103.251C1410.14 103.077 1419.45 105.122 1426.5 109.387C1433.64 113.565 1438.82 119.005 1442.04 125.707C1445.35 132.41 1447 139.59 1447 147.25C1447 159.436 1444.35 169.707 1439.04 178.063C1433.73 186.332 1425.94 192.555 1415.67 196.733C1405.48 200.911 1393.03 203 1378.32 203ZM1494.03 12.9019V203H1454.99V12.9019H1494.03ZM1587.79 12.9019V203H1548.75V12.9019H1587.79ZM1646.28 12.9019V43.584H1491.18V12.9019H1646.28ZM1772.17 172.449V203H1670.98V172.449H1772.17ZM1683.78 12.9019V203H1644.61V12.9019H1683.78ZM1758.98 90.3251V120.093H1670.98V90.3251H1758.98ZM1772.04 12.9019V43.584H1670.98V12.9019H1772.04ZM1869.98 153.256C1869.98 149.861 1869.46 146.815 1868.42 144.117C1867.46 141.331 1865.63 138.807 1862.93 136.544C1860.24 134.194 1856.45 131.887 1851.57 129.624C1846.7 127.361 1840.39 125.011 1832.64 122.574C1824.03 119.789 1815.84 116.655 1808.1 113.173C1800.44 109.692 1793.65 105.644 1787.73 101.031C1781.9 96.3309 1777.28 90.8909 1773.89 84.7109C1770.58 78.531 1768.93 71.3501 1768.93 63.1682C1768.93 55.2475 1770.67 48.0666 1774.15 41.6255C1777.63 35.0974 1782.51 29.5268 1788.77 24.9136C1795.04 20.2134 1802.44 16.6012 1810.97 14.077C1819.59 11.5528 1829.03 10.2907 1839.3 10.2907C1853.32 10.2907 1865.54 12.8149 1875.99 17.8633C1886.43 22.9117 1894.53 29.8314 1900.27 38.6226C1906.11 47.4138 1909.02 57.467 1909.02 68.7824H1870.11C1870.11 63.2118 1868.94 58.3374 1866.59 54.1595C1864.33 49.8944 1860.84 46.5434 1856.14 44.1062C1851.53 41.669 1845.7 40.4505 1838.65 40.4505C1831.86 40.4505 1826.2 41.495 1821.68 43.584C1817.15 45.5859 1813.75 48.3277 1811.49 51.8094C1809.23 55.204 1808.1 59.0338 1808.1 63.2988C1808.1 66.5193 1808.88 69.4352 1810.45 72.0464C1812.1 74.6577 1814.54 77.0948 1817.76 79.3579C1820.98 81.621 1824.94 83.7535 1829.64 85.7554C1834.34 87.7574 1839.78 89.7158 1845.96 91.6307C1856.32 94.7642 1865.41 98.2894 1873.25 102.206C1881.17 106.123 1887.78 110.519 1893.09 115.393C1898.4 120.267 1902.41 125.794 1905.1 131.974C1907.8 138.154 1909.15 145.161 1909.15 152.995C1909.15 161.264 1907.54 168.662 1904.32 175.19C1901.1 181.718 1896.44 187.246 1890.35 191.772C1884.26 196.298 1876.99 199.736 1868.55 202.086C1860.1 204.436 1850.66 205.611 1840.22 205.611C1830.82 205.611 1821.55 204.393 1812.41 201.956C1803.27 199.431 1794.95 195.645 1787.47 190.597C1780.07 185.548 1774.15 179.107 1769.71 171.273C1765.27 163.44 1763.05 154.17 1763.05 143.464H1802.35C1802.35 149.383 1803.27 154.387 1805.09 158.478C1806.92 162.569 1809.49 165.877 1812.8 168.401C1816.19 170.925 1820.2 172.753 1824.81 173.885C1829.51 175.016 1834.64 175.582 1840.22 175.582C1847 175.582 1852.58 174.625 1856.93 172.71C1861.37 170.795 1864.63 168.14 1866.72 164.745C1868.9 161.351 1869.98 157.521 1869.98 153.256Z" fill="#FDFBFA"/>
<path d="M-804.14 214.914H-770.977L-722.147 354.485L-673.317 214.914H-640.154L-708.83 405.013H-735.464L-804.14 214.914ZM-822.027 214.914H-788.995L-782.989 350.96V405.013H-822.027V214.914ZM-655.299 214.914H-622.137V405.013H-661.305V350.96L-655.299 214.914ZM-570.15 214.914V405.013H-609.188V214.914H-570.15ZM-402.746 214.914V405.013H-441.915L-518.293 277.584V405.013H-557.462V214.914H-518.293L-441.784 342.473V214.914H-402.746ZM-334.308 405.013H-375.696L-375.435 374.461H-334.308C-324.037 374.461 -315.377 372.155 -308.326 367.541C-301.276 362.841 -295.967 356.008 -292.398 347.043C-288.742 338.078 -286.914 327.241 -286.914 314.533V305.263C-286.914 295.515 -287.959 286.941 -290.048 279.543C-292.05 272.144 -295.053 265.921 -299.056 260.872C-303.06 255.824 -307.978 252.038 -313.81 249.513C-319.642 246.902 -326.344 245.597 -333.917 245.597H-376.48V214.914H-333.917C-321.208 214.914 -309.588 217.091 -299.056 221.443C-288.437 225.708 -279.255 231.844 -271.508 239.852C-263.761 247.86 -257.799 257.434 -253.621 268.575C-249.356 279.63 -247.223 291.946 -247.223 305.524V314.533C-247.223 328.025 -249.356 340.341 -253.621 351.482C-257.799 362.623 -263.761 372.198 -271.508 380.206C-279.168 388.127 -288.35 394.263 -299.056 398.615C-309.676 402.88 -321.426 405.013 -334.308 405.013ZM-353.501 214.914V405.013H-392.669V214.914H-353.501ZM-125.754 321.584H-174.584L-174.845 294.688H-133.849C-126.625 294.688 -120.706 293.774 -116.093 291.946C-111.479 290.031 -108.041 287.289 -105.778 283.721C-103.428 280.065 -102.253 275.626 -102.253 270.403C-102.253 264.484 -103.385 259.697 -105.648 256.041C-107.824 252.386 -111.262 249.731 -115.962 248.077C-120.575 246.423 -126.538 245.597 -133.849 245.597H-161.006V405.013H-200.174V214.914H-133.849C-122.795 214.914 -112.916 215.959 -104.211 218.048C-95.4203 220.137 -87.9782 223.314 -81.8854 227.579C-75.7925 231.844 -71.1358 237.241 -67.9152 243.769C-64.6947 250.21 -63.0845 257.869 -63.0845 266.748C-63.0845 274.581 -64.8688 281.806 -68.4375 288.421C-71.9191 295.036 -77.4463 300.433 -85.0188 304.61C-92.5044 308.788 -102.297 311.095 -114.395 311.53L-125.754 321.584ZM-127.451 405.013H-185.29L-170.015 374.461H-127.451C-120.575 374.461 -114.961 373.373 -110.609 371.197C-106.257 368.934 -103.036 365.888 -100.947 362.058C-98.8584 358.228 -97.8139 353.832 -97.8139 348.871C-97.8139 343.3 -98.7714 338.47 -100.686 334.379C-102.514 330.288 -105.474 327.154 -109.564 324.978C-113.655 322.715 -119.052 321.584 -125.754 321.584H-163.487L-163.225 294.688H-116.223L-107.214 305.263C-95.6379 305.089 -86.3245 307.135 -79.2741 311.4C-72.1367 315.578 -66.9578 321.018 -63.7373 327.72C-60.4297 334.422 -58.7759 341.603 -58.7759 349.263C-58.7759 361.448 -61.4307 371.719 -66.7402 380.075C-72.0497 388.344 -79.8399 394.568 -90.1108 398.746C-100.295 402.924 -112.741 405.013 -127.451 405.013ZM68.8065 374.461V405.013H-26.8954V374.461H68.8065ZM-14.2309 214.914V405.013H-53.3995V214.914H-14.2309ZM214.798 305.524V314.533C214.798 328.982 212.84 341.951 208.923 353.441C205.006 364.93 199.479 374.722 192.341 382.817C185.204 390.825 176.674 396.961 166.751 401.226C156.916 405.491 145.992 407.624 133.98 407.624C122.056 407.624 111.132 405.491 101.209 401.226C91.3735 396.961 82.8435 390.825 75.6191 382.817C68.3946 374.722 62.7805 364.93 58.7766 353.441C54.8597 341.951 52.9013 328.982 52.9013 314.533V305.524C52.9013 290.989 54.8597 278.019 58.7766 266.617C62.6934 255.128 68.2206 245.335 75.3579 237.241C82.5824 229.146 91.1124 222.966 100.948 218.701C110.871 214.436 121.794 212.303 133.719 212.303C145.731 212.303 156.654 214.436 166.49 218.701C176.413 222.966 184.943 229.146 192.08 237.241C199.305 245.335 204.875 255.128 208.792 266.617C212.796 278.019 214.798 290.989 214.798 305.524ZM175.238 314.533V305.263C175.238 295.167 174.324 286.288 172.496 278.629C170.668 270.969 167.97 264.528 164.401 259.306C160.832 254.083 156.48 250.166 151.345 247.555C146.21 244.857 140.334 243.508 133.719 243.508C127.104 243.508 121.229 244.857 116.093 247.555C111.045 250.166 106.736 254.083 103.168 259.306C99.686 264.528 97.0312 270.969 95.2033 278.629C93.3755 286.288 92.4615 295.167 92.4615 305.263V314.533C92.4615 324.543 93.3755 333.421 95.2033 341.168C97.0312 348.827 99.7295 355.312 103.298 360.622C106.867 365.844 111.219 369.804 116.354 372.503C121.49 375.201 127.365 376.55 133.98 376.55C140.595 376.55 146.471 375.201 151.606 372.503C156.742 369.804 161.05 365.844 164.532 360.622C168.013 355.312 170.668 348.827 172.496 341.168C174.324 333.421 175.238 324.543 175.238 314.533ZM264.827 374.853L302.69 214.914H323.841L328.671 241.549L288.328 405.013H265.61L264.827 374.853ZM245.373 214.914L276.708 374.853L274.097 405.013H248.768L206.596 214.914H245.373ZM361.965 374.2L392.908 214.914H431.685L389.644 405.013H364.315L361.965 374.2ZM335.722 214.914L373.846 375.506L372.801 405.013H350.084L309.479 241.419L314.701 214.914H335.722ZM470.615 214.914V405.013H431.577V214.914H470.615ZM638.019 214.914V405.013H598.851L522.472 277.584V405.013H483.303V214.914H522.472L598.981 342.473V214.914H638.019ZM798.764 305.655V380.989C795.805 384.558 791.235 388.431 785.055 392.609C778.875 396.7 770.911 400.225 761.162 403.185C751.414 406.144 739.62 407.624 725.78 407.624C713.507 407.624 702.323 405.622 692.226 401.618C682.129 397.527 673.425 391.565 666.113 383.731C658.889 375.897 653.318 366.323 649.401 355.007C645.485 343.605 643.526 330.592 643.526 315.969V304.088C643.526 289.465 645.398 276.453 649.14 265.05C652.97 253.648 658.41 244.03 665.461 236.196C672.511 228.362 680.91 222.4 690.659 218.309C700.408 214.218 711.244 212.173 723.169 212.173C739.707 212.173 753.285 214.871 763.904 220.268C774.523 225.577 782.618 232.976 788.189 242.463C793.846 251.863 797.328 262.657 798.634 274.842H760.64C759.683 268.401 757.855 262.787 755.157 258C752.458 253.213 748.585 249.47 743.537 246.772C738.575 244.073 732.134 242.724 724.213 242.724C717.685 242.724 711.854 244.073 706.718 246.772C701.67 249.383 697.405 253.256 693.923 258.392C690.441 263.527 687.787 269.881 685.959 277.454C684.131 285.026 683.217 293.817 683.217 303.827V315.969C683.217 325.892 684.174 334.683 686.089 342.343C688.004 349.915 690.833 356.313 694.576 361.535C698.406 366.671 703.106 370.544 708.677 373.155C714.247 375.767 720.732 377.072 728.13 377.072C734.31 377.072 739.446 376.55 743.537 375.506C747.715 374.461 751.066 373.199 753.59 371.719C756.201 370.153 758.203 368.673 759.596 367.28V333.595H723.822V305.655H798.764ZM923.367 321.584H874.537L874.276 294.688H915.272C922.497 294.688 928.415 293.774 933.029 291.946C937.642 290.031 941.08 287.289 943.343 283.721C945.693 280.065 946.868 275.626 946.868 270.403C946.868 264.484 945.737 259.697 943.474 256.041C941.298 252.386 937.859 249.731 933.159 248.077C928.546 246.423 922.584 245.597 915.272 245.597H888.115V405.013H848.947V214.914H915.272C926.326 214.914 936.206 215.959 944.91 218.048C953.701 220.137 961.143 223.314 967.236 227.579C973.329 231.844 977.985 237.241 981.206 243.769C984.427 250.21 986.037 257.869 986.037 266.748C986.037 274.581 984.252 281.806 980.684 288.421C977.202 295.036 971.675 300.433 964.102 304.61C956.617 308.788 946.825 311.095 934.726 311.53L923.367 321.584ZM921.67 405.013H863.831L879.107 374.461H921.67C928.546 374.461 934.16 373.373 938.512 371.197C942.864 368.934 946.085 365.888 948.174 362.058C950.263 358.228 951.307 353.832 951.307 348.871C951.307 343.3 950.35 338.47 948.435 334.379C946.607 330.288 943.648 327.154 939.557 324.978C935.466 322.715 930.069 321.584 923.367 321.584H885.635L885.896 294.688H932.898L941.907 305.263C953.483 305.089 962.797 307.135 969.847 311.4C976.984 315.578 982.163 321.018 985.384 327.72C988.692 334.422 990.345 341.603 990.345 349.263C990.345 361.448 987.691 371.719 982.381 380.075C977.072 388.344 969.281 394.568 959.01 398.746C948.827 402.924 936.38 405.013 921.67 405.013ZM1037.37 214.914V405.013H998.333V214.914H1037.37ZM1131.14 214.914V405.013H1092.1V214.914H1131.14ZM1189.63 214.914V245.597H1034.52V214.914H1189.63ZM1315.51 374.461V405.013H1214.33V374.461H1315.51ZM1227.12 214.914V405.013H1187.96V214.914H1227.12ZM1302.33 292.338V322.106H1214.33V292.338H1302.33ZM1315.38 214.914V245.597H1214.33V214.914H1315.38ZM1413.33 355.268C1413.33 351.874 1412.81 348.827 1411.76 346.129C1410.8 343.344 1408.98 340.82 1406.28 338.557C1403.58 336.206 1399.79 333.9 1394.92 331.637C1390.05 329.374 1383.73 327.024 1375.99 324.586C1367.37 321.801 1359.19 318.668 1351.44 315.186C1343.78 311.704 1336.99 307.657 1331.07 303.044C1325.24 298.344 1320.63 292.903 1317.24 286.724C1313.93 280.544 1312.27 273.363 1312.27 265.181C1312.27 257.26 1314.01 250.079 1317.5 243.638C1320.98 237.11 1325.85 231.539 1332.12 226.926C1338.39 222.226 1345.78 218.614 1354.31 216.09C1362.93 213.565 1372.38 212.303 1382.65 212.303C1396.66 212.303 1408.89 214.827 1419.33 219.876C1429.78 224.924 1437.87 231.844 1443.62 240.635C1449.45 249.426 1452.37 259.48 1452.37 270.795H1413.46C1413.46 265.224 1412.28 260.35 1409.93 256.172C1407.67 251.907 1404.19 248.556 1399.49 246.119C1394.88 243.682 1389.04 242.463 1381.99 242.463C1375.2 242.463 1369.55 243.508 1365.02 245.597C1360.49 247.598 1357.1 250.34 1354.84 253.822C1352.57 257.217 1351.44 261.046 1351.44 265.311C1351.44 268.532 1352.23 271.448 1353.79 274.059C1355.45 276.67 1357.88 279.107 1361.1 281.37C1364.32 283.634 1368.28 285.766 1372.99 287.768C1377.69 289.77 1383.13 291.728 1389.31 293.643C1399.66 296.777 1408.76 300.302 1416.59 304.219C1424.51 308.136 1431.13 312.531 1436.44 317.406C1441.75 322.28 1445.75 327.807 1448.45 333.987C1451.15 340.167 1452.5 347.174 1452.5 355.007C1452.5 363.276 1450.89 370.675 1447.67 377.203C1444.45 383.731 1439.79 389.258 1433.7 393.784C1427.6 398.31 1420.34 401.749 1411.89 404.099C1403.45 406.449 1394.01 407.624 1383.56 407.624C1374.16 407.624 1364.89 406.405 1355.75 403.968C1346.61 401.444 1338.3 397.658 1330.81 392.609C1323.42 387.561 1317.5 381.12 1313.06 373.286C1308.62 365.452 1306.4 356.182 1306.4 345.476H1345.7C1345.7 351.395 1346.61 356.4 1348.44 360.491C1350.27 364.582 1352.84 367.889 1356.14 370.414C1359.54 372.938 1363.54 374.766 1368.15 375.897C1372.85 377.029 1377.99 377.595 1383.56 377.595C1390.35 377.595 1395.92 376.637 1400.27 374.722C1404.71 372.807 1407.98 370.153 1410.06 366.758C1412.24 363.363 1413.33 359.534 1413.33 355.268Z" fill="#FDFBFA"/>
<path d="M-85.14 416.902H-51.9773L-3.14712 556.473L45.683 416.902H78.8457L10.1702 607H-16.4644L-85.14 416.902ZM-103.027 416.902H-69.9948L-63.989 552.947V607H-103.027V416.902ZM63.7006 416.902H96.8633V607H57.6947V552.947L63.7006 416.902ZM148.85 416.902V607H109.812V416.902H148.85ZM316.254 416.902V607H277.085L200.707 479.572V607H161.538V416.902H200.707L277.216 544.461V416.902H316.254ZM384.692 607H343.304L343.565 576.449H384.692C394.963 576.449 403.623 574.142 410.674 569.529C417.724 564.829 423.033 557.996 426.602 549.031C430.258 540.065 432.086 529.229 432.086 516.521V507.251C432.086 497.502 431.041 488.929 428.952 481.53C426.95 474.132 423.947 467.908 419.944 462.86C415.94 457.811 411.022 454.025 405.19 451.501C399.358 448.89 392.656 447.584 385.083 447.584H342.52V416.902H385.083C397.792 416.902 409.412 419.078 419.944 423.43C430.563 427.695 439.745 433.831 447.492 441.839C455.239 449.847 461.201 459.422 465.379 470.563C469.644 481.617 471.777 493.933 471.777 507.512V516.521C471.777 530.012 469.644 542.328 465.379 553.47C461.201 564.611 455.239 574.185 447.492 582.193C439.832 590.114 430.65 596.25 419.944 600.602C409.324 604.867 397.574 607 384.692 607ZM365.499 416.902V607H326.331V416.902H365.499ZM550.659 523.571H501.829L501.568 496.675H542.564C549.789 496.675 555.708 495.761 560.321 493.933C564.934 492.019 568.372 489.277 570.635 485.708C572.985 482.052 574.16 477.613 574.16 472.391C574.16 466.472 573.029 461.685 570.766 458.029C568.59 454.373 565.152 451.718 560.451 450.065C555.838 448.411 549.876 447.584 542.564 447.584H515.408V607H476.239V416.902H542.564C553.619 416.902 563.498 417.946 572.202 420.035C580.993 422.124 588.435 425.301 594.528 429.566C600.621 433.831 605.278 439.228 608.498 445.756C611.719 452.197 613.329 459.857 613.329 468.735C613.329 476.569 611.545 483.793 607.976 490.408C604.494 497.023 598.967 502.42 591.395 506.598C583.909 510.776 574.117 513.082 562.018 513.518L550.659 523.571ZM548.962 607H491.123L506.399 576.449H548.962C555.838 576.449 561.452 575.361 565.804 573.184C570.157 570.921 573.377 567.875 575.466 564.045C577.555 560.215 578.6 555.82 578.6 550.858C578.6 545.288 577.642 540.457 575.727 536.366C573.899 532.275 570.94 529.142 566.849 526.966C562.758 524.702 557.361 523.571 550.659 523.571H512.927L513.188 496.675H560.19L569.199 507.251C580.776 507.077 590.089 509.122 597.139 513.387C604.277 517.565 609.456 523.005 612.676 529.707C615.984 536.41 617.638 543.59 617.638 551.25C617.638 563.436 614.983 573.707 609.673 582.063C604.364 590.332 596.574 596.555 586.303 600.733C576.119 604.911 563.672 607 548.962 607ZM745.22 576.449V607H649.518V576.449H745.22ZM662.183 416.902V607H623.014V416.902H662.183ZM891.211 507.512V516.521C891.211 530.969 889.253 543.939 885.336 555.428C881.419 566.918 875.892 576.71 868.755 584.804C861.617 592.812 853.087 598.949 843.165 603.214C833.329 607.479 822.405 609.611 810.394 609.611C798.469 609.611 787.545 607.479 777.623 603.214C767.787 598.949 759.257 592.812 752.033 584.804C744.808 576.71 739.194 566.918 735.19 555.428C731.273 543.939 729.315 530.969 729.315 516.521V507.512C729.315 492.976 731.273 480.007 735.19 468.604C739.107 457.115 744.634 447.323 751.771 439.228C758.996 431.133 767.526 424.953 777.362 420.688C787.284 416.423 798.208 414.291 810.133 414.291C822.144 414.291 833.068 416.423 842.904 420.688C852.826 424.953 861.356 431.133 868.494 439.228C875.718 447.323 881.289 457.115 885.206 468.604C889.21 480.007 891.211 492.976 891.211 507.512ZM851.651 516.521V507.251C851.651 497.154 850.737 488.276 848.909 480.616C847.082 472.956 844.383 466.515 840.815 461.293C837.246 456.07 832.894 452.154 827.758 449.542C822.623 446.844 816.748 445.495 810.133 445.495C803.517 445.495 797.642 446.844 792.507 449.542C787.458 452.154 783.15 456.07 779.581 461.293C776.099 466.515 773.445 472.956 771.617 480.616C769.789 488.276 768.875 497.154 768.875 507.251V516.521C768.875 526.53 769.789 535.409 771.617 543.155C773.445 550.815 776.143 557.299 779.712 562.609C783.28 567.831 787.632 571.792 792.768 574.49C797.903 577.188 803.779 578.538 810.394 578.538C817.009 578.538 822.884 577.188 828.02 574.49C833.155 571.792 837.463 567.831 840.945 562.609C844.427 557.299 847.082 550.815 848.909 543.155C850.737 535.409 851.651 526.53 851.651 516.521ZM941.24 576.84L979.103 416.902H1000.25L1005.08 443.537L964.741 607H942.023L941.24 576.84ZM921.786 416.902L953.121 576.84L950.51 607H925.181L883.009 416.902H921.786ZM1038.38 576.187L1069.32 416.902H1108.1L1066.06 607H1040.73L1038.38 576.187ZM1012.14 416.902L1050.26 577.493L1049.21 607H1026.5L985.892 443.406L991.115 416.902H1012.14ZM1147.03 416.902V607H1107.99V416.902H1147.03ZM1314.43 416.902V607H1275.26L1198.89 479.572V607H1159.72V416.902H1198.89L1275.39 544.461V416.902H1314.43ZM1475.18 507.642V582.977C1472.22 586.545 1467.65 590.419 1461.47 594.597C1455.29 598.688 1447.32 602.213 1437.58 605.172C1427.83 608.132 1416.03 609.611 1402.19 609.611C1389.92 609.611 1378.74 607.609 1368.64 603.605C1358.54 599.514 1349.84 593.552 1342.53 585.718C1335.3 577.885 1329.73 568.31 1325.81 556.995C1321.9 545.592 1319.94 532.58 1319.94 517.957V506.076C1319.94 491.453 1321.81 478.44 1325.55 467.038C1329.38 455.635 1334.82 446.017 1341.87 438.183C1348.92 430.35 1357.32 424.387 1367.07 420.297C1376.82 416.206 1387.66 414.16 1399.58 414.16C1416.12 414.16 1429.7 416.858 1440.32 422.255C1450.94 427.564 1459.03 434.963 1464.6 444.45C1470.26 453.851 1473.74 464.644 1475.05 476.83H1437.05C1436.1 470.389 1434.27 464.775 1431.57 459.987C1428.87 455.2 1425 451.457 1419.95 448.759C1414.99 446.061 1408.55 444.712 1400.63 444.712C1394.1 444.712 1388.27 446.061 1383.13 448.759C1378.08 451.37 1373.82 455.244 1370.34 460.379C1366.85 465.514 1364.2 471.868 1362.37 479.441C1360.54 487.014 1359.63 495.805 1359.63 505.815V517.957C1359.63 527.88 1360.59 536.671 1362.5 544.33C1364.42 551.903 1367.25 558.3 1370.99 563.523C1374.82 568.658 1379.52 572.532 1385.09 575.143C1390.66 577.754 1397.15 579.06 1404.54 579.06C1410.72 579.06 1415.86 578.538 1419.95 577.493C1424.13 576.449 1427.48 575.186 1430 573.707C1432.61 572.14 1434.62 570.66 1436.01 569.268V535.583H1400.24V507.642H1475.18ZM1599.78 523.571H1550.95L1550.69 496.675H1591.69C1598.91 496.675 1604.83 495.761 1609.44 493.933C1614.06 492.019 1617.49 489.277 1619.76 485.708C1622.11 482.052 1623.28 477.613 1623.28 472.391C1623.28 466.472 1622.15 461.685 1619.89 458.029C1617.71 454.373 1614.27 451.718 1609.57 450.065C1604.96 448.411 1599 447.584 1591.69 447.584H1564.53V607H1525.36V416.902H1591.69C1602.74 416.902 1612.62 417.946 1621.32 420.035C1630.11 422.124 1637.56 425.301 1643.65 429.566C1649.74 433.831 1654.4 439.228 1657.62 445.756C1660.84 452.197 1662.45 459.857 1662.45 468.735C1662.45 476.569 1660.67 483.793 1657.1 490.408C1653.62 497.023 1648.09 502.42 1640.52 506.598C1633.03 510.776 1623.24 513.082 1611.14 513.518L1599.78 523.571ZM1598.08 607H1540.24L1555.52 576.449H1598.08C1604.96 576.449 1610.57 575.361 1614.93 573.184C1619.28 570.921 1622.5 567.875 1624.59 564.045C1626.68 560.215 1627.72 555.82 1627.72 550.858C1627.72 545.288 1626.76 540.457 1624.85 536.366C1623.02 532.275 1620.06 529.142 1615.97 526.966C1611.88 524.702 1606.48 523.571 1599.78 523.571H1562.05L1562.31 496.675H1609.31L1618.32 507.251C1629.9 507.077 1639.21 509.122 1646.26 513.387C1653.4 517.565 1658.58 523.005 1661.8 529.707C1665.1 536.41 1666.76 543.59 1666.76 551.25C1666.76 563.436 1664.1 573.707 1658.79 582.063C1653.48 590.332 1645.69 596.555 1635.42 600.733C1625.24 604.911 1612.79 607 1598.08 607ZM1713.78 416.902V607H1674.75V416.902H1713.78ZM1807.55 416.902V607H1768.51V416.902H1807.55ZM1866.04 416.902V447.584H1710.94V416.902H1866.04ZM1991.93 576.449V607H1890.74V576.449H1991.93ZM1903.54 416.902V607H1864.37V416.902H1903.54ZM1978.74 494.325V524.093H1890.74V494.325H1978.74ZM1991.8 416.902V447.584H1890.74V416.902H1991.8ZM2089.74 557.256C2089.74 553.861 2089.22 550.815 2088.18 548.117C2087.22 545.331 2085.39 542.807 2082.69 540.544C2079.99 538.194 2076.21 535.887 2071.33 533.624C2066.46 531.361 2060.15 529.011 2052.4 526.574C2043.78 523.789 2035.6 520.655 2027.86 517.173C2020.2 513.692 2013.41 509.644 2007.49 505.031C2001.66 500.331 1997.04 494.891 1993.65 488.711C1990.34 482.531 1988.69 475.35 1988.69 467.168C1988.69 459.247 1990.43 452.067 1993.91 445.626C1997.39 439.097 2002.27 433.527 2008.53 428.914C2014.8 424.213 2022.2 420.601 2030.73 418.077C2039.35 415.553 2048.79 414.291 2059.06 414.291C2073.07 414.291 2085.3 416.815 2095.75 421.863C2106.19 426.912 2114.29 433.831 2120.03 442.623C2125.86 451.414 2128.78 461.467 2128.78 472.782H2089.87C2089.87 467.212 2088.7 462.337 2086.35 458.159C2084.08 453.894 2080.6 450.543 2075.9 448.106C2071.29 445.669 2065.46 444.45 2058.41 444.45C2051.62 444.45 2045.96 445.495 2041.43 447.584C2036.91 449.586 2033.51 452.328 2031.25 455.809C2028.99 459.204 2027.86 463.034 2027.86 467.299C2027.86 470.519 2028.64 473.435 2030.21 476.046C2031.86 478.658 2034.3 481.095 2037.52 483.358C2040.74 485.621 2044.7 487.753 2049.4 489.755C2054.1 491.757 2059.54 493.716 2065.72 495.631C2076.08 498.764 2085.17 502.289 2093.01 506.206C2100.93 510.123 2107.54 514.519 2112.85 519.393C2118.16 524.267 2122.17 529.794 2124.86 535.974C2127.56 542.154 2128.91 549.161 2128.91 556.995C2128.91 565.264 2127.3 572.662 2124.08 579.19C2120.86 585.718 2116.2 591.246 2110.11 595.772C2104.02 600.298 2096.75 603.736 2088.31 606.086C2079.86 608.436 2070.42 609.611 2059.97 609.611C2050.57 609.611 2041.3 608.393 2032.16 605.956C2023.03 603.431 2014.71 599.645 2007.23 594.597C1999.83 589.548 1993.91 583.107 1989.47 575.273C1985.03 567.44 1982.81 558.17 1982.81 547.464H2022.11C2022.11 553.383 2023.03 558.387 2024.85 562.478C2026.68 566.569 2029.25 569.877 2032.56 572.401C2035.95 574.925 2039.95 576.753 2044.57 577.885C2049.27 579.016 2054.4 579.582 2059.97 579.582C2066.76 579.582 2072.33 578.625 2076.69 576.71C2081.13 574.795 2084.39 572.14 2086.48 568.745C2088.65 565.351 2089.74 561.521 2089.74 557.256Z" fill="#FDFBFA"/>
</g>
<defs>
<filter id="filter0_f_929_8825" x="-832.027" y="0.160156" width="2970.94" height="619.451" filterUnits="userSpaceOnUse" color-interpolation-filters="sRGB">
<feFlood flood-opacity="0" result="BackgroundImageFix"/>
<feBlend mode="normal" in="SourceGraphic" in2="BackgroundImageFix" result="shape"/>
<feGaussianBlur stdDeviation="5" result="effect1_foregroundBlur_929_8825"/>
</filter>
</defs>
</svg>
