<svg width="170" height="36" viewBox="0 0 170 36" fill="none" xmlns="http://www.w3.org/2000/svg">
<path d="M12.1289 26V18.2891H5.37891V26H1.80469V8.72656H5.37891V15.3125H12.1289V8.72656H15.7148V26H12.1289ZM33.1172 8.72656L27.3398 19.5078V26H23.7305V19.5078L17.7539 8.72656H22.0078L25.5938 16.25L29.0273 8.72656H33.1172ZM42.5156 19.7891H38.8477V26H35.2617V8.72656H42.7852C44.5195 8.72656 45.9023 9.17188 46.9336 10.0625C47.9648 10.9531 48.4805 12.332 48.4805 14.1992C48.4805 16.2383 47.9648 17.6797 46.9336 18.5234C45.9023 19.3672 44.4297 19.7891 42.5156 19.7891ZM44.2031 16.1914C44.6719 15.7773 44.9062 15.1211 44.9062 14.2227C44.9062 13.3242 44.668 12.6836 44.1914 12.3008C43.7227 11.918 43.0625 11.7266 42.2109 11.7266H38.8477V16.8125H42.2109C43.0625 16.8125 43.7266 16.6055 44.2031 16.1914ZM63.2109 18.4531H54.8203V22.8945H64.3828V26H51.293V8.72656H63.9609V11.7852H54.8203V15.4531H63.2109V18.4531ZM75.082 26H67.2539V8.72656H75.6445C77.7617 8.75781 79.2617 9.37109 80.1445 10.5664C80.6758 11.3008 80.9414 12.1797 80.9414 13.2031C80.9414 14.2578 80.6758 15.1055 80.1445 15.7461C79.8477 16.1055 79.4102 16.4336 78.832 16.7305C79.7148 17.0508 80.3789 17.5586 80.8242 18.2539C81.2773 18.9492 81.5039 19.793 81.5039 20.7852C81.5039 21.8086 81.2461 22.7266 80.7305 23.5391C80.4023 24.0781 79.9922 24.5312 79.5 24.8984C78.9453 25.3203 78.2891 25.6094 77.5312 25.7656C76.7812 25.9219 75.9648 26 75.082 26ZM75 18.3945H70.6992V23H74.9414C75.6992 23 76.2891 22.8984 76.7109 22.6953C77.4766 22.3203 77.8594 21.6016 77.8594 20.5391C77.8594 19.6406 77.4883 19.0234 76.7461 18.6875C76.332 18.5 75.75 18.4023 75 18.3945ZM76.793 15.1016C77.2617 14.8203 77.4961 14.3164 77.4961 13.5898C77.4961 12.7852 77.1836 12.2539 76.5586 11.9961C76.0195 11.8164 75.332 11.7266 74.4961 11.7266H70.6992V15.5352H74.9414C75.6992 15.5352 76.3164 15.3906 76.793 15.1016ZM94.7578 19.3438V8.72656H98.4258V19.3438C98.4258 21.1797 98.1406 22.6094 97.5703 23.6328C96.5078 25.5078 94.4805 26.4453 91.4883 26.4453C88.4961 26.4453 86.4648 25.5078 85.3945 23.6328C84.8242 22.6094 84.5391 21.1797 84.5391 19.3438V8.72656H88.207V19.3438C88.207 20.5312 88.3477 21.3984 88.6289 21.9453C89.0664 22.9141 90.0195 23.3984 91.4883 23.3984C92.9492 23.3984 93.8984 22.9141 94.3359 21.9453C94.6172 21.3984 94.7578 20.5312 94.7578 19.3438ZM109.219 19.2266H105.492V26H101.965V8.72656H110.438C111.648 8.75 112.578 8.89844 113.227 9.17188C113.883 9.44531 114.438 9.84766 114.891 10.3789C115.266 10.8164 115.562 11.3008 115.781 11.832C116 12.3633 116.109 12.9688 116.109 13.6484C116.109 14.4688 115.902 15.2773 115.488 16.0742C115.074 16.8633 114.391 17.4219 113.438 17.75C114.234 18.0703 114.797 18.5273 115.125 19.1211C115.461 19.707 115.629 20.6055 115.629 21.8164V22.9766C115.629 23.7656 115.66 24.3008 115.723 24.582C115.816 25.0273 116.035 25.3555 116.379 25.5664V26H112.406C112.297 25.6172 112.219 25.3086 112.172 25.0742C112.078 24.5898 112.027 24.0938 112.02 23.5859L111.996 21.9805C111.98 20.8789 111.777 20.1445 111.387 19.7773C111.004 19.4102 110.281 19.2266 109.219 19.2266ZM111.41 16.0859C112.129 15.7578 112.488 15.1094 112.488 14.1406C112.488 13.0938 112.141 12.3906 111.445 12.0312C111.055 11.8281 110.469 11.7266 109.688 11.7266H105.492V16.3672H109.582C110.395 16.3672 111.004 16.2734 111.41 16.0859ZM129.82 25.5781C128.867 26.1641 127.695 26.457 126.305 26.457C124.016 26.457 122.141 25.6641 120.68 24.0781C119.156 22.4844 118.395 20.3047 118.395 17.5391C118.395 14.7422 119.164 12.5 120.703 10.8125C122.242 9.125 124.277 8.28125 126.809 8.28125C129.004 8.28125 130.766 8.83984 132.094 9.95703C133.43 11.0664 134.195 12.4531 134.391 14.1172H130.84C130.566 12.9375 129.898 12.1133 128.836 11.6445C128.242 11.3867 127.582 11.2578 126.855 11.2578C125.465 11.2578 124.32 11.7852 123.422 12.8398C122.531 13.8867 122.086 15.4648 122.086 17.5742C122.086 19.6992 122.57 21.2031 123.539 22.0859C124.508 22.9688 125.609 23.4102 126.844 23.4102C128.055 23.4102 129.047 23.0625 129.82 22.3672C130.594 21.6641 131.07 20.7461 131.25 19.6133H127.254V16.7305H134.449V26H132.059L131.695 23.8438C131 24.6641 130.375 25.2422 129.82 25.5781ZM149.93 18.4531H141.539V22.8945H151.102V26H138.012V8.72656H150.68V11.7852H141.539V15.4531H149.93V18.4531ZM161.25 19.2266H157.523V26H153.996V8.72656H162.469C163.68 8.75 164.609 8.89844 165.258 9.17188C165.914 9.44531 166.469 9.84766 166.922 10.3789C167.297 10.8164 167.594 11.3008 167.812 11.832C168.031 12.3633 168.141 12.9688 168.141 13.6484C168.141 14.4688 167.934 15.2773 167.52 16.0742C167.105 16.8633 166.422 17.4219 165.469 17.75C166.266 18.0703 166.828 18.5273 167.156 19.1211C167.492 19.707 167.66 20.6055 167.66 21.8164V22.9766C167.66 23.7656 167.691 24.3008 167.754 24.582C167.848 25.0273 168.066 25.3555 168.41 25.5664V26H164.438C164.328 25.6172 164.25 25.3086 164.203 25.0742C164.109 24.5898 164.059 24.0938 164.051 23.5859L164.027 21.9805C164.012 20.8789 163.809 20.1445 163.418 19.7773C163.035 19.4102 162.312 19.2266 161.25 19.2266ZM163.441 16.0859C164.16 15.7578 164.52 15.1094 164.52 14.1406C164.52 13.0938 164.172 12.3906 163.477 12.0312C163.086 11.8281 162.5 11.7266 161.719 11.7266H157.523V16.3672H161.613C162.426 16.3672 163.035 16.2734 163.441 16.0859Z" fill="#D99A08"/>
</svg>
