<svg width="21" height="19" viewBox="0 0 21 19" fill="none" xmlns="http://www.w3.org/2000/svg">
<path id="Vector" d="M9.40425 0.612344C9.748 -0.204115 10.9188 -0.204114 11.2625 0.612346L13.2913 5.43123C13.4363 5.77543 13.7639 6.01061 14.14 6.0404L19.406 6.45748C20.2983 6.52814 20.66 7.62813 19.9803 8.2034L15.9682 11.5987C15.6816 11.8412 15.5564 12.2218 15.6439 12.5843L16.8697 17.661C17.0774 18.5211 16.1303 19.201 15.3664 18.7401L10.8579 16.0196C10.5359 15.8252 10.1309 15.8252 9.80885 16.0196L5.30036 18.7401C4.53649 19.201 3.58933 18.5211 3.79701 17.661L5.0228 12.5843C5.11035 12.2218 4.9852 11.8412 4.69863 11.5987L0.686436 8.2034C0.00665625 7.62813 0.368442 6.52814 1.26067 6.45748L6.52673 6.0404C6.90287 6.01061 7.23053 5.77543 7.37544 5.43123L9.40425 0.612344Z" fill="#D99A08"/>
</svg>
